<?xml version="1.0" encoding="UTF-8" standalone="no"?>
<!DOCTYPE svg PUBLIC "-//W3C//DTD SVG 1.1//EN" "http://www.w3.org/Graphics/SVG/1.1/DTD/svg11.dtd">
<svg width="100%" height="100%" viewBox="0 0 500 500" version="1.1" xmlns="http://www.w3.org/2000/svg" xmlns:xlink="http://www.w3.org/1999/xlink" xml:space="preserve" xmlns:serif="http://www.serif.com/" style="fill-rule:evenodd;clip-rule:evenodd;stroke-linecap:round;stroke-linejoin:round;stroke-miterlimit:1.5;">
    <path d="M20,20L20,480L100,480L100,40L180,40L180,460L280,460L280,60L400,60L400,420L480,420L480,20" style="fill:none;stroke:black;stroke-width:18.75px;"/>
    <path d="M60,450L60,20L210,20L210,430L250,430L250,20L420,20L420,380L450,380L450,20" style="fill:none;stroke:black;stroke-width:18.75px;"/>
    <path d="M480,460L360,460L360,100L310,100L310,480L140,480L140,80" style="fill:none;stroke:black;stroke-width:18.75px;"/>
</svg>
